<?xml version="1.0" encoding="utf-8"?><svg xmlns="http://www.w3.org/2000/svg" xmlns:xlink="http://www.w3.org/1999/xlink" width="1426" height="955" preserveAspectRatio="xMidYMid" viewBox="0 0 1426 955" style="z-index:1;margin-right:-2px;display:block;background-repeat-y:initial;background-repeat-x:initial;background-color:rgb(241, 242, 243);animation-play-state:paused" ><g transform="translate(713,477.5) scale(1,1) translate(-713,-477.5)" style="transform:matrix(1, 0, 0, 1, 0, 0);animation-play-state:paused" ><defs style="animation-play-state:paused" ><linearGradient id="lg-0.4800692300257896" x1="0" x2="0" y1="0" y2="1" style="animation-play-state:paused" ><stop stop-color="#7bcec5" offset="0" style="animation-play-state:paused" ></stop>

  
<stop stop-color="#5dcec2" offset="1" style="animation-play-state:paused" ></stop></linearGradient></defs>


<rect x="0" y="0" width="1426" height="955" fill="url(#lg-0.4800692300257896)" style="animation-play-state:paused" ></rect>
<circle cx="0" cy="502.5223642084673" r="132.0646964929439" fill="#0e665d" transform="matrix(1,0,0,1,0,0)" style="transform:matrix(1, 0, 0, 1, 0, 0);animation-play-state:paused" ></circle>
<circle cx="132.0646964929439" cy="527.8992555601723" r="136.13224257028435" fill="#0e665d" transform="matrix(1,0,0,1,-0.005429701879620552,0)" style="transform:matrix(1, 0, 0, 1, -0.0054297, 0);animation-play-state:paused" ></circle>
<circle cx="268.1969390632282" cy="612.358559797835" r="64.9750978015293" fill="#0e665d" transform="matrix(1,0,0,1,-0.022117476910352707,0)" style="transform:matrix(1, 0, 0, 1, -0.0221175, 0);animation-play-state:paused" ></circle>
<circle cx="333.1720368647575" cy="598.0197607583016" r="98.5202840444504" fill="#0e665d" transform="matrix(1,0,0,1,-0.05069184675812721,0)" style="transform:matrix(1, 0, 0, 1, -0.0506918, 0);animation-play-state:paused" ></circle>
<circle cx="431.6923209092079" cy="632.5238693199183" r="60.14612789965018" fill="#0e665d" transform="matrix(1,0,0,1,-0.09182151407003403,0)" style="transform:matrix(1, 0, 0, 1, -0.0918215, 0);animation-play-state:paused" ></circle>
<circle cx="491.8384488088581" cy="611.8945836510803" r="131.9252889581154" fill="#0e665d" transform="matrix(1,0,0,1,-0.14621838927268982,0)" style="transform:matrix(1, 0, 0, 1, -0.146218, 0);animation-play-state:paused" ></circle>
<circle cx="623.7637377669735" cy="641.857050110532" r="127.46054621035752" fill="#0e665d" transform="matrix(1,0,0,1,-0.21463721990585327,0)" style="transform:matrix(1, 0, 0, 1, -0.214637, 0);animation-play-state:paused" ></circle>
<circle cx="751.224283977331" cy="654.8879257489145" r="95.00742476537451" fill="#0e665d" transform="matrix(1,0,0,1,-0.29787129163742065,0)" style="transform:matrix(1, 0, 0, 1, -0.297871, 0);animation-play-state:paused" ></circle>
<circle cx="846.2317087427055" cy="642.7932927441176" r="81.1955251740759" fill="#0e665d" transform="matrix(1,0,0,1,-0.39675408601760864,0)" style="transform:matrix(1, 0, 0, 1, -0.396754, 0);animation-play-state:paused" ></circle>
<circle cx="927.4272339167813" cy="614.9869274563653" r="127.49982097401565" fill="#0e665d" transform="matrix(1,0,0,1,-0.5121519565582275,0)" style="transform:matrix(1, 0, 0, 1, -0.512152, 0);animation-play-state:paused" ></circle>
<circle cx="1054.927054890797" cy="604.4047566966581" r="98.34555815852374" fill="#0e665d" transform="matrix(1,0,0,1,-0.6449497938156128,0)" style="transform:matrix(1, 0, 0, 1, -0.64495, 0);animation-play-state:paused" ></circle>
<circle cx="1153.2726130493209" cy="612.0814047623313" r="66.01773039906402" fill="#0e665d" transform="matrix(1,0,0,1,-0.7960454225540161,0)" style="transform:matrix(1, 0, 0, 1, -0.796045, 0);animation-play-state:paused" ></circle>
<circle cx="1219.2903434483849" cy="575.0115161775016" r="100.91342145012324" fill="#0e665d" transform="matrix(1,0,0,1,-0.9663258790969849,0)" style="transform:matrix(1, 0, 0, 1, -0.966326, 0);animation-play-state:paused" ></circle>
<circle cx="1320.203764898508" cy="565.7205018764064" r="93.2337792919169" fill="#0e665d" transform="matrix(1,0,0,1,-1.1566318273544312,0)" style="transform:matrix(1, 0, 0, 1, -1.15663, 0);animation-play-state:paused" ></circle>
<circle cx="1413.437544190425" cy="507.88604833112106" r="129.88339508329648" fill="#0e665d" transform="matrix(1,0,0,1,-1.367732048034668,0)" style="transform:matrix(1, 0, 0, 1, -1.36773, 0);animation-play-state:paused" ></circle>
<circle cx="0" cy="694.0292296942923" r="54.14230858808974" fill="#15736a" transform="matrix(1,0,0,1,0,0)" style="transform:matrix(1, 0, 0, 1, 0, 0);animation-play-state:paused" ></circle>
<circle cx="54.14230858808974" cy="660.3760682426428" r="88.94037900696567" fill="#15736a" transform="matrix(1,0,0,1,-0.022117480635643005,0)" style="transform:matrix(1, 0, 0, 1, -0.0221175, 0);animation-play-state:paused" ></circle>
<circle cx="143.0826875950554" cy="666.2771647199273" r="96.66808984931828" fill="#15736a" transform="matrix(1,0,0,1,-0.09182096272706985,0)" style="transform:matrix(1, 0, 0, 1, -0.091821, 0);animation-play-state:paused" ></circle>
<circle cx="239.75077744437368" cy="653.8017655374279" r="132.07688746387328" fill="#15736a" transform="matrix(1,0,0,1,-0.21463727951049805,0)" style="transform:matrix(1, 0, 0, 1, -0.214637, 0);animation-play-state:paused" ></circle>
<circle cx="371.82766490824696" cy="693.5460843129595" r="113.99088057239733" fill="#15736a" transform="matrix(1,0,0,1,-0.3967541754245758,0)" style="transform:matrix(1, 0, 0, 1, -0.396754, 0);animation-play-state:paused" ></circle>
<circle cx="485.8185454806443" cy="726.6258741610591" r="84.6707601052526" fill="#15736a" transform="matrix(1,0,0,1,-0.6449482440948486,0)" style="transform:matrix(1, 0, 0, 1, -0.644948, 0);animation-play-state:paused" ></circle>
<circle cx="570.4893055858969" cy="728.0345746121227" r="129.1034589387958" fill="#15736a" transform="matrix(1,0,0,1,-0.966326117515564,0)" style="transform:matrix(1, 0, 0, 1, -0.966326, 0);animation-play-state:paused" ></circle>
<circle cx="699.5927645246927" cy="756.5584586784709" r="108.20146115980839" fill="#15736a" transform="matrix(1,0,0,1,-1.367732286453247,0)" style="transform:matrix(1, 0, 0, 1, -1.36773, 0);animation-play-state:paused" ></circle>
<circle cx="807.794225684501" cy="750.5010101957099" r="53.27135071345027" fill="#15736a" transform="matrix(1,0,0,1,-1.8546746969223022,0)" style="transform:matrix(1, 0, 0, 1, -1.85467, 0);animation-play-state:paused" ></circle>
<circle cx="861.0655763979513" cy="736.0803050297868" r="91.97356396241192" fill="#15736a" transform="matrix(1,0,0,1,-2.429480791091919,0)" style="transform:matrix(1, 0, 0, 1, -2.42948, 0);animation-play-state:paused" ></circle>
<circle cx="953.0391403603633" cy="718.3051049149062" r="100.73169786710571" fill="#15736a" transform="matrix(1,0,0,1,-3.0886480808258057,0)" style="transform:matrix(1, 0, 0, 1, -3.08865, 0);animation-play-state:paused" ></circle>
<circle cx="1053.770838227469" cy="707.1227566010768" r="90.45295350542368" fill="#15736a" transform="matrix(1,0,0,1,-3.819967746734619,0)" style="transform:matrix(1, 0, 0, 1, -3.81997, 0);animation-play-state:paused" ></circle>
<circle cx="1144.2237917328928" cy="657.1552631335636" r="140.32794335929614" fill="#15736a" transform="matrix(1,0,0,1,-4.600757598876953,0)" style="transform:matrix(1, 0, 0, 1, -4.60076, 0);animation-play-state:paused" ></circle>
<circle cx="1284.551735092189" cy="654.9809822513515" r="108.13480084298321" fill="#15736a" transform="matrix(1,0,0,1,-5.399241924285889,0)" style="transform:matrix(1, 0, 0, 1, -5.39924, 0);animation-play-state:paused" ></circle>
<circle cx="1392.686535935172" cy="699.2347429409355" r="52.245442114580605" fill="#15736a" transform="matrix(1,0,0,1,-6.180023193359375,0)" style="transform:matrix(1, 0, 0, 1, -6.18002, 0);animation-play-state:paused" ></circle>
<circle cx="1444.9319780497526" cy="696.5913291598214" r="50.662019198846295" fill="#15736a" transform="matrix(1,0,0,1,-6.911351680755615,0)" style="transform:matrix(1, 0, 0, 1, -6.91135, 0);animation-play-state:paused" ></circle>
<circle cx="1495.593997248599" cy="610.8802558587663" r="112.45654190209666" fill="#15736a" transform="matrix(1,0,0,1,-7.570518970489502,0)" style="transform:matrix(1, 0, 0, 1, -7.57052, 0);animation-play-state:paused" ></circle>
<circle cx="0" cy="749.083606288716" r="89.93032809273662" fill="#1c8176" transform="matrix(1,0,0,1,0,0)" style="transform:matrix(1, 0, 0, 1, 0, 0);animation-play-state:paused" ></circle>
<circle cx="89.93032809273662" cy="710.6942922201314" r="139.5188670309898" fill="#1c8176" transform="matrix(1,0,0,1,-0.05069144815206528,0)" style="transform:matrix(1, 0, 0, 1, -0.0506914, 0);animation-play-state:paused" ></circle>
<circle cx="229.44919512372644" cy="746.015130690821" r="136.37348792076466" fill="#1c8176" transform="matrix(1,0,0,1,-0.21463550627231598,0)" style="transform:matrix(1, 0, 0, 1, -0.214636, 0);animation-play-state:paused" ></circle>
<circle cx="365.8226830444911" cy="805.6172038467358" r="87.93761349999204" fill="#1c8176" transform="matrix(1,0,0,1,-0.5121521949768066,0)" style="transform:matrix(1, 0, 0, 1, -0.512152, 0);animation-play-state:paused" ></circle>
<circle cx="453.76029654448314" cy="814.9878634822645" r="96.29007741312711" fill="#1c8176" transform="matrix(1,0,0,1,-0.9663242101669312,0)" style="transform:matrix(1, 0, 0, 1, -0.966324, 0);animation-play-state:paused" ></circle>
<circle cx="550.0503739576102" cy="822.8695599150983" r="124.45054529819555" fill="#1c8176" transform="matrix(1,0,0,1,-1.600261926651001,0)" style="transform:matrix(1, 0, 0, 1, -1.60026, 0);animation-play-state:paused" ></circle>
<circle cx="674.5009192558057" cy="852.1019849069949" r="75.592384151477" fill="#1c8176" transform="matrix(1,0,0,1,-2.4294817447662354,0)" style="transform:matrix(1, 0, 0, 1, -2.42948, 0);animation-play-state:paused" ></circle>
<circle cx="750.0933034072827" cy="853.636928536863" r="53.87023471793472" fill="#1c8176" transform="matrix(1,0,0,1,-3.446458578109741,0)" style="transform:matrix(1, 0, 0, 1, -3.44646, 0);animation-play-state:paused" ></circle>
<circle cx="803.9635381252175" cy="840.9406168526932" r="104.89862586724522" fill="#1c8176" transform="matrix(1,0,0,1,-4.600749492645264,0)" style="transform:matrix(1, 0, 0, 1, -4.60075, 0);animation-play-state:paused" ></circle>
<circle cx="908.8621639924627" cy="840.054689386406" r="51.4052255814852" fill="#1c8176" transform="matrix(1,0,0,1,-5.794003486633301,0)" style="transform:matrix(1, 0, 0, 1, -5.794, 0);animation-play-state:paused" ></circle>
<circle cx="960.2673895739479" cy="834.0024079311873" r="55.261644669078905" fill="#1c8176" transform="matrix(1,0,0,1,-6.911348819732666,0)" style="transform:matrix(1, 0, 0, 1, -6.91135, 0);animation-play-state:paused" ></circle>
<circle cx="1015.5290342430268" cy="797.5296595447503" r="116.79967855727214" fill="#1c8176" transform="matrix(1,0,0,1,-7.868852615356445,0)" style="transform:matrix(1, 0, 0, 1, -7.86885, 0);animation-play-state:paused" ></circle>
<circle cx="1132.328712800299" cy="780.6153847285765" r="108.23297059090665" fill="#1c8176" transform="matrix(1,0,0,1,-8.632268905639648,0)" style="transform:matrix(1, 0, 0, 1, -8.63227, 0);animation-play-state:paused" ></circle>
<circle cx="1240.5616833912056" cy="765.4220963712883" r="103.13966963943457" fill="#1c8176" transform="matrix(1,0,0,1,-9.20395278930664,0)" style="transform:matrix(1, 0, 0, 1, -9.20395, 0);animation-play-state:paused" ></circle>
<circle cx="1343.7013530306401" cy="752.7223626881748" r="98.23713849942035" fill="#1c8176" transform="matrix(1,0,0,1,-9.603243827819824,0)" style="transform:matrix(1, 0, 0, 1, -9.60324, 0);animation-play-state:paused" ></circle>
<circle cx="1441.9384915300604" cy="743.9184839977504" r="92.17412471062954" fill="#1c8176" transform="matrix(1,0,0,1,-9.853781700134277,0)" style="transform:matrix(1, 0, 0, 1, -9.85378, 0);animation-play-state:paused" ></circle>
<circle cx="1534.11261624069" cy="761.2992641624281" r="69.25016871679571" fill="#1c8176" transform="matrix(1,0,0,1,-9.977882385253906,0)" style="transform:matrix(1, 0, 0, 1, -9.97788, 0);animation-play-state:paused" ></circle>
<circle cx="0" cy="811.8000825119004" r="119.33326457341626" fill="#238f84" transform="matrix(1,0,0,1,0,0)" style="transform:matrix(1, 0, 0, 1, 0, 0);animation-play-state:paused" ></circle>
<circle cx="119.33326457341626" cy="848.8948766548787" r="106.19447527058333" fill="#238f84" transform="matrix(1,0,0,1,-0.09182096272706985,0)" style="transform:matrix(1, 0, 0, 1, -0.091821, 0);animation-play-state:paused" ></circle>
<circle cx="225.5277398439996" cy="849.2355718030334" r="128.9133821349898" fill="#238f84" transform="matrix(1,0,0,1,-0.39675161242485046,0)" style="transform:matrix(1, 0, 0, 1, -0.396752, 0);animation-play-state:paused" ></circle>
<circle cx="354.4411219789894" cy="906.016295807661" r="81.17072543729527" fill="#238f84" transform="matrix(1,0,0,1,-0.966326117515564,0)" style="transform:matrix(1, 0, 0, 1, -0.966326, 0);animation-play-state:paused" ></circle>
<circle cx="435.61184741628466" cy="931.583032205495" r="50.15925001952861" fill="#238f84" transform="matrix(1,0,0,1,-1.8546746969223022,0)" style="transform:matrix(1, 0, 0, 1, -1.85467, 0);animation-play-state:paused" ></circle>
<circle cx="485.77109743581326" cy="933.5992633299835" r="55.959449823259064" fill="#238f84" transform="matrix(1,0,0,1,-3.0886390209198,0)" style="transform:matrix(1, 0, 0, 1, -3.08864, 0);animation-play-state:paused" ></circle>
<circle cx="541.7305472590723" cy="940.1200509845494" r="51.62140454815309" fill="#238f84" transform="matrix(1,0,0,1,-4.600757598876953,0)" style="transform:matrix(1, 0, 0, 1, -4.60076, 0);animation-play-state:paused" ></circle>
<circle cx="593.3519518072254" cy="937.2607601892862" r="88.09224343175684" fill="#238f84" transform="matrix(1,0,0,1,-6.180023193359375,0)" style="transform:matrix(1, 0, 0, 1, -6.18002, 0);animation-play-state:paused" ></circle>
<circle cx="681.4441952389823" cy="947.9440247003764" r="132.85749977255452" fill="#238f84" transform="matrix(1,0,0,1,-7.5705108642578125,0)" style="transform:matrix(1, 0, 0, 1, -7.57051, 0);animation-play-state:paused" ></circle>
<circle cx="814.3016950115368" cy="937.0935322856178" r="105.0271294317143" fill="#238f84" transform="matrix(1,0,0,1,-8.632266998291016,0)" style="transform:matrix(1, 0, 0, 1, -8.63227, 0);animation-play-state:paused" ></circle>
<circle cx="919.3288244432512" cy="910.9164600964972" r="126.94770122404974" fill="#238f84" transform="matrix(1,0,0,1,-9.355048179626465,0)" style="transform:matrix(1, 0, 0, 1, -9.35505, 0);animation-play-state:paused" ></circle>
<circle cx="1046.2765256673008" cy="885.8794396473088" r="123.22839978201372" fill="#238f84" transform="matrix(1,0,0,1,-9.785360336303711,0)" style="transform:matrix(1, 0, 0, 1, -9.78536, 0);animation-play-state:paused" ></circle>
<circle cx="1169.5049254493144" cy="916.4570447003742" r="50.16580982411251" fill="#238f84" transform="matrix(1,0,0,1,-9.977882385253906,0)" style="transform:matrix(1, 0, 0, 1, -9.97788, 0);animation-play-state:paused" ></circle>
<circle cx="1219.670735273427" cy="834.9487622032941" r="140.78264013488425" fill="#238f84" transform="matrix(1,0,0,1,-9.977882385253906,0)" style="transform:matrix(1, 0, 0, 1, -9.97788, 0);animation-play-state:paused" ></circle>
<circle cx="1360.4533754083113" cy="873.1397359528255" r="75.1230004642254" fill="#238f84" transform="matrix(1,0,0,1,-9.785364151000977,0)" style="transform:matrix(1, 0, 0, 1, -9.78536, 0);animation-play-state:paused" ></circle>
<circle cx="1435.5763758725368" cy="845.0691757593822" r="90.39491683366226" fill="#238f84" transform="matrix(1,0,0,1,-9.355048179626465,0)" style="transform:matrix(1, 0, 0, 1, -9.35505, 0);animation-play-state:paused" ></circle>
<circle cx="0" cy="956.3871870438431" r="80.51067746346405" fill="#2a9d91" transform="matrix(1,0,0,1,0,0)" style="transform:matrix(1, 0, 0, 1, 0, 0);animation-play-state:paused" ></circle>
<circle cx="80.51067746346405" cy="913.7525201651873" r="130.81044689162363" fill="#2a9d91" transform="matrix(1,0,0,1,-0.14621774852275848,0)" style="transform:matrix(1, 0, 0, 1, -0.146218, 0);animation-play-state:paused" ></circle>
<circle cx="211.32112435508768" cy="981.8965443814753" r="84.21184399887447" fill="#2a9d91" transform="matrix(1,0,0,1,-0.6449452042579651,0)" style="transform:matrix(1, 0, 0, 1, -0.644945, 0);animation-play-state:paused" ></circle>
<circle cx="295.53296835396213" cy="1011.1320748543762" r="59.58919780069504" fill="#2a9d91" transform="matrix(1,0,0,1,-1.6002684831619263,0)" style="transform:matrix(1, 0, 0, 1, -1.60027, 0);animation-play-state:paused" ></circle>
<circle cx="355.1221661546572" cy="971.442765963225" r="135.40539621999943" fill="#2a9d91" transform="matrix(1,0,0,1,-3.0886454582214355,0)" style="transform:matrix(1, 0, 0, 1, -3.08865, 0);animation-play-state:paused" ></circle>
<circle cx="490.5275623746566" cy="1000.8053337921178" r="139.39853030577774" fill="#2a9d91" transform="matrix(1,0,0,1,-4.999988555908203,0)" style="transform:matrix(1, 0, 0, 1, -4.99999, 0);animation-play-state:paused" ></circle>
<circle cx="629.9260926804343" cy="1044.4584943650998" r="61.09111868159289" fill="#2a9d91" transform="matrix(1,0,0,1,-6.911355018615723,0)" style="transform:matrix(1, 0, 0, 1, -6.91136, 0);animation-play-state:paused" ></circle>
<circle cx="691.0172113620272" cy="1048.9581319780063" r="109.246524145994" fill="#2a9d91" transform="matrix(1,0,0,1,-8.399731636047363,0)" style="transform:matrix(1, 0, 0, 1, -8.39973, 0);animation-play-state:paused" ></circle>
<circle cx="800.2637355080212" cy="1037.8700565367735" r="103.01768566363995" fill="#2a9d91" transform="matrix(1,0,0,1,-9.355046272277832,0)" style="transform:matrix(1, 0, 0, 1, -9.35505, 0);animation-play-state:paused" ></circle>
<circle cx="903.2814211716611" cy="1014.7796136891043" r="119.34575321765227" fill="#2a9d91" transform="matrix(1,0,0,1,-9.853781700134277,0)" style="transform:matrix(1, 0, 0, 1, -9.85378, 0);animation-play-state:paused" ></circle>
<circle cx="1022.6271743893134" cy="1012.575990623524" r="77.57264507514688" fill="#2a9d91" transform="matrix(1,0,0,1,-10,0)" style="transform:matrix(1, 0, 0, 1, -10, 0);animation-play-state:paused" ></circle>
<circle cx="1100.1998194644602" cy="1007.8522818981412" r="69.2801696273775" fill="#2a9d91" transform="matrix(1,0,0,1,-9.853781700134277,0)" style="transform:matrix(1, 0, 0, 1, -9.85378, 0);animation-play-state:paused" ></circle>
<circle cx="1169.4799890918378" cy="940.8096694424819" r="146.02996041997577" fill="#2a9d91" transform="matrix(1,0,0,1,-9.355046272277832,0)" style="transform:matrix(1, 0, 0, 1, -9.35505, 0);animation-play-state:paused" ></circle>
<circle cx="1315.5099495118136" cy="966.709690345207" r="85.09540082245154" fill="#2a9d91" transform="matrix(1,0,0,1,-8.39973258972168,0)" style="transform:matrix(1, 0, 0, 1, -8.39973, 0);animation-play-state:paused" ></circle>
<circle cx="1400.605350334265" cy="932.4606270900044" r="104.15927882062812" fill="#2a9d91" transform="matrix(1,0,0,1,-6.911355018615723,0)" style="transform:matrix(1, 0, 0, 1, -6.91136, 0);animation-play-state:paused" ></circle>
<circle cx="1504.764629154893" cy="973.4639768990263" r="59.686492659150495" fill="#2a9d91" transform="matrix(1,0,0,1,-4.999988079071045,0)" style="transform:matrix(1, 0, 0, 1, -4.99999, 0);animation-play-state:paused" ></circle></g></svg>